<svg xmlns="http://www.w3.org/2000/svg" viewBox="0 0 80 80" fill="none">
  <rect x="31" y="8" width="18" height="18" rx="2" fill="#e0f2fe" stroke="#0284c7" stroke-width="1.4"/>
  <rect x="28" y="5" width="24" height="6" rx="2" fill="#0284c7"/>
  <path d="M33 24 L33 36 L18 68 C16 72 20 74 28 74 L52 74 C60 74 64 72 62 68 L47 36 L47 24"
        fill="#e0f2fe" stroke="#0284c7" stroke-width="1.6"/>
  <path d="M22 54 L58 54 L56 68 C55 71 52 72 48 72 L32 72 C28 72 25 71 24 68 Z" fill="#38bdf8" opacity="0.75"/>
  <circle cx="36" cy="62" r="2" fill="#7dd3fc"/>
  <circle cx="44" cy="64" r="1.5" fill="#bae6fd"/>
</svg>
