<svg xmlns="http://www.w3.org/2000/svg" viewBox="0 0 80 80" fill="none">
  <rect x="8" y="18" width="64" height="48" rx="4" fill="#1e40af" stroke="#1e3a8a" stroke-width="1.5"/>
  <rect x="10" y="20" width="60" height="44" rx="3" fill="#2563eb" stroke="#1d4ed8" stroke-width="1"/>
  <circle cx="18" cy="28" r="3" fill="#93c5fd" stroke="#1e40af" stroke-width="0.6"/><circle cx="18" cy="37" r="3" fill="#60a5fa" stroke="#1e40af" stroke-width="0.6"/><circle cx="18" cy="46" r="3" fill="#93c5fd" stroke="#1e40af" stroke-width="0.6"/><circle cx="18" cy="55" r="3" fill="#60a5fa" stroke="#1e40af" stroke-width="0.6"/><circle cx="27" cy="28" r="3" fill="#60a5fa" stroke="#1e40af" stroke-width="0.6"/><circle cx="27" cy="37" r="3" fill="#93c5fd" stroke="#1e40af" stroke-width="0.6"/><circle cx="27" cy="46" r="3" fill="#60a5fa" stroke="#1e40af" stroke-width="0.6"/><circle cx="27" cy="55" r="3" fill="#93c5fd" stroke="#1e40af" stroke-width="0.6"/><circle cx="36" cy="28" r="3" fill="#93c5fd" stroke="#1e40af" stroke-width="0.6"/><circle cx="36" cy="37" r="3" fill="#60a5fa" stroke="#1e40af" stroke-width="0.6"/><circle cx="36" cy="46" r="3" fill="#93c5fd" stroke="#1e40af" stroke-width="0.6"/><circle cx="36" cy="55" r="3" fill="#60a5fa" stroke="#1e40af" stroke-width="0.6"/><circle cx="45" cy="28" r="3" fill="#60a5fa" stroke="#1e40af" stroke-width="0.6"/><circle cx="45" cy="37" r="3" fill="#93c5fd" stroke="#1e40af" stroke-width="0.6"/><circle cx="45" cy="46" r="3" fill="#60a5fa" stroke="#1e40af" stroke-width="0.6"/><circle cx="45" cy="55" r="3" fill="#93c5fd" stroke="#1e40af" stroke-width="0.6"/><circle cx="54" cy="28" r="3" fill="#93c5fd" stroke="#1e40af" stroke-width="0.6"/><circle cx="54" cy="37" r="3" fill="#60a5fa" stroke="#1e40af" stroke-width="0.6"/><circle cx="54" cy="46" r="3" fill="#93c5fd" stroke="#1e40af" stroke-width="0.6"/><circle cx="54" cy="55" r="3" fill="#60a5fa" stroke="#1e40af" stroke-width="0.6"/><circle cx="63" cy="28" r="3" fill="#60a5fa" stroke="#1e40af" stroke-width="0.6"/><circle cx="63" cy="37" r="3" fill="#93c5fd" stroke="#1e40af" stroke-width="0.6"/><circle cx="63" cy="46" r="3" fill="#60a5fa" stroke="#1e40af" stroke-width="0.6"/><circle cx="63" cy="55" r="3" fill="#93c5fd" stroke="#1e40af" stroke-width="0.6"/>
</svg>
